<svg width="27" height="27" viewBox="0 0 27 27" fill="none" xmlns="http://www.w3.org/2000/svg">
<path d="M16.875 14.625L13.5 14.625M13.5 14.625L10.125 14.625M13.5 14.625L13.5 11.25M13.5 14.625L13.5 18" stroke="#09A380" stroke-width="1.5" stroke-linecap="round"/>
<path d="M24.3404 14.5778L24.0268 16.7574C23.4785 20.5682 23.2043 22.4737 21.8823 23.612C20.5604 24.7502 18.6217 24.7502 14.7443 24.7502H12.2557C8.37829 24.7502 6.4396 24.7502 5.11766 23.612C3.79571 22.4737 3.52154 20.5682 2.97319 16.7574L2.65958 14.5778C2.23271 11.6112 2.01927 10.1278 2.62729 8.85956C3.23531 7.5913 4.52946 6.82037 7.11778 5.27853L8.67572 4.35047C11.0262 2.95032 12.2014 2.25024 13.5 2.25024C14.7986 2.25024 15.9738 2.95032 18.3243 4.35047L19.8822 5.27853C22.4705 6.82037 23.7647 7.5913 24.3727 8.85956" stroke="#09A380" stroke-width="1.5" stroke-linecap="round"/>
</svg>
