<svg width="48" height="48" viewBox="0 0 48 48" fill="none" xmlns="http://www.w3.org/2000/svg">
<path d="M28 4C28 4 32.4 4.4 38 10C43.6 15.6 44 20 44 20" stroke="#09A380" stroke-width="2.5" stroke-linecap="round"/>
<path d="M28.4141 11.0713C28.4141 11.0713 30.394 11.637 33.3638 14.6068C36.3337 17.5767 36.8993 19.5566 36.8993 19.5566" stroke="#09A380" stroke-width="2.5" stroke-linecap="round"/>
<path d="M20.0752 10.6323L21.3732 12.9582C22.5446 15.0572 22.0744 17.8107 20.2294 19.6556C20.2294 19.6556 20.2294 19.6556 20.2294 19.6556C20.2293 19.6557 17.9917 21.8936 22.049 25.951C26.1057 30.0077 28.3436 27.7714 28.3444 27.7706C28.3444 27.7706 28.3444 27.7706 28.3444 27.7706C30.1894 25.9256 32.9429 25.4554 35.0418 26.6268L37.3677 27.9248C40.5371 29.6937 40.9114 34.1385 38.1255 36.9244C36.4515 38.5984 34.4008 39.901 32.1338 39.9869C28.3176 40.1316 21.8366 39.1658 15.3354 32.6646C8.83426 26.1634 7.86843 19.6824 8.0131 15.8662C8.09904 13.5992 9.40161 11.5485 11.0756 9.87446C13.8615 7.08856 18.3063 7.46287 20.0752 10.6323Z" stroke="#09A380" stroke-width="2.5" stroke-linecap="round"/>
</svg>
