<svg width="552" height="833" viewBox="0 0 552 833" fill="none" xmlns="http://www.w3.org/2000/svg">
<g clip-path="url(#clip0_572_1019)">
<path d="M436.297 670.081C435.876 670.557 435.454 671.047 435.046 671.537C429.348 678.156 424.2 685.231 419.654 692.69C419.287 693.261 418.933 693.847 418.607 694.418C407.844 712.44 400.518 732.305 397 753.004C396.211 757.686 395.617 762.396 395.219 767.133C394.933 770.781 394.761 774.433 394.702 778.09C394.484 793.444 395.844 810.527 385.958 822.26C383.316 825.348 380.091 827.883 376.467 829.72C373.738 831.133 370.854 832.225 367.873 832.973H337.047C335.497 832.741 333.947 832.496 332.397 832.251C332.356 832.251 332.315 832.238 332.274 832.238L331.962 832.347L330.099 832.973L330.017 833V832.973C330.02 832.918 330.015 832.863 330.004 832.809C330.006 832.709 330.001 832.609 329.99 832.51V832.496C329.976 832.224 329.963 831.965 329.963 831.693L329.922 830.972C329.922 830.972 329.908 830.958 329.922 830.958C329.908 830.55 329.881 830.142 329.868 829.72C328.44 794.193 331.921 757.482 348.673 726.202C354.418 715.485 361.815 705.741 370.593 697.331C370.644 697.278 370.699 697.228 370.756 697.182C388.175 680.548 410.693 669.672 434.462 670.04C435.074 670.04 435.685 670.053 436.297 670.081Z" fill="#F0F0F0"/>
<path d="M436.366 670.849C409.446 684.678 387.564 706.647 373.826 733.634C370.766 739.391 368.631 745.595 367.501 752.018C366.602 758.31 367.402 764.728 369.819 770.606C371.962 776.132 374.794 781.535 375.559 787.486C375.905 790.539 375.602 793.629 374.671 796.556C373.741 799.483 372.202 802.18 370.157 804.47C365.209 810.308 358.461 814.019 351.736 817.418C344.269 821.192 336.454 824.994 331.269 831.818C330.641 832.644 329.396 831.62 330.023 830.795C339.043 818.923 354.929 816.334 365.747 806.681C370.795 802.177 374.518 796.123 374.098 789.149C373.731 783.052 370.815 777.477 368.597 771.901C366.155 766.201 365.145 759.99 365.654 753.81C366.454 747.351 368.346 741.075 371.25 735.251C377.578 722.035 385.942 709.897 396.037 699.282C407.49 687.103 420.941 676.975 435.806 669.337C436.727 668.864 437.28 670.38 436.366 670.849Z" fill="white"/>
<path d="M377.738 724.684C373.528 721.762 370.492 717.437 369.173 712.481C367.854 707.526 368.338 702.262 370.538 697.631C370.987 696.695 372.46 697.349 372.011 698.286C369.954 702.595 369.504 707.498 370.742 712.11C371.98 716.722 374.823 720.739 378.76 723.437C379.615 724.024 378.588 725.268 377.738 724.684Z" fill="white"/>
<path d="M368.363 767.948C378.684 766.171 387.958 760.566 394.334 752.25C394.965 751.425 396.21 752.449 395.58 753.272C388.928 761.914 379.266 767.728 368.522 769.553C367.497 769.726 367.345 768.12 368.363 767.948Z" fill="white"/>
<path d="M408.337 689.067C409.731 690.537 411.468 691.638 413.391 692.271C415.315 692.903 417.366 693.047 419.359 692.69C420.381 692.504 420.532 694.11 419.517 694.295C417.313 694.679 415.049 694.517 412.922 693.823C410.795 693.129 408.87 691.924 407.316 690.314C407.156 690.174 407.056 689.98 407.035 689.769C407.014 689.558 407.075 689.347 407.204 689.179C407.34 689.015 407.535 688.911 407.747 688.89C407.96 688.869 408.172 688.932 408.337 689.067Z" fill="white"/>
<path d="M511.369 768.576C510.743 768.712 510.118 768.848 509.479 768.997H509.465C500.944 770.851 492.586 773.392 484.473 776.593C483.847 776.838 483.222 777.083 482.596 777.341H482.583C463.243 785.224 445.522 796.613 430.313 810.935C430.258 810.99 430.204 811.031 430.15 811.085C430.117 811.125 430.08 811.161 430.041 811.194L429.973 811.262C423.938 816.985 418.343 823.155 413.234 829.72C413.234 829.733 413.22 829.747 413.207 829.76C412.391 830.822 411.562 831.884 410.746 832.973H330.097L330.016 833V832.973H329.676C329.676 832.959 329.689 832.946 329.703 832.932C329.703 832.918 329.717 832.918 329.717 832.905C329.812 832.769 329.907 832.633 329.989 832.51V832.496C330.009 832.455 330.037 832.419 330.07 832.388C330.152 832.251 330.247 832.143 330.315 832.02C330.859 831.258 331.389 830.482 331.933 829.72C332.817 828.454 333.714 827.188 334.625 825.936L334.626 825.93L334.629 825.926L334.634 825.923L334.639 825.922V825.908C334.653 825.895 334.653 825.881 334.666 825.868L334.693 825.84C345.912 810.296 358.53 795.541 372.985 783.181C373.42 782.8 373.855 782.419 374.317 782.065C380.862 776.521 387.853 771.527 395.217 767.133C399.242 764.751 403.389 762.564 407.659 760.572C418.672 755.492 430.414 752.175 442.456 750.744H442.483C442.51 750.744 442.537 750.73 442.578 750.73C442.619 750.73 442.646 750.717 442.673 750.717C466.619 747.94 491.163 752.827 509.941 767.446C510.431 767.827 510.893 768.194 511.369 768.576Z" fill="#F0F0F0"/>
<path d="M329.677 832.973H330.017V833L330.099 832.973H351.679C345.247 831.87 338.829 831.013 332.397 832.251C332.247 832.278 332.111 832.306 331.962 832.347C331.309 832.469 330.656 832.632 330.004 832.809C329.963 832.823 329.909 832.837 329.868 832.85C329.808 832.866 329.753 832.894 329.705 832.932C329.67 832.937 329.637 832.951 329.609 832.973H329.677Z" fill="white"/>
<path d="M510.974 769.242C510.471 769.161 509.981 769.065 509.478 768.997H509.464C498.973 767.285 488.324 766.746 477.714 767.391C477.183 767.418 476.639 767.459 476.096 767.487C461.368 768.514 446.887 771.816 433.167 777.273C433.154 777.273 433.154 777.273 433.154 777.287C433.004 777.341 432.855 777.396 432.719 777.45C429.523 778.743 426.369 780.159 423.282 781.684C417.375 784.436 411.938 788.102 407.169 792.546C403.351 796.318 400.46 800.927 398.724 806.008C398.548 806.525 398.371 807.029 398.208 807.546C398.085 807.954 397.963 808.376 397.841 808.785C396.236 814.488 395.243 820.504 392.279 825.718C391.453 827.172 390.448 828.517 389.287 829.72C388.088 830.969 386.736 832.062 385.263 832.973H381.836C383.711 832.162 385.45 831.064 386.989 829.72C388.187 828.686 389.235 827.49 390.103 826.167C393.476 821.076 394.509 814.869 396.086 809.084C396.345 808.145 396.617 807.233 396.916 806.321C398.486 801.329 401.116 796.737 404.626 792.859C409.148 788.184 414.431 784.313 420.25 781.411C423.921 779.479 427.692 777.727 431.563 776.157C432.066 775.94 432.569 775.749 433.072 775.558C457.513 766.037 484.054 763.236 509.941 767.446C510.444 767.514 510.933 767.609 511.436 767.691C512.456 767.868 511.994 769.419 510.974 769.242Z" fill="white"/>
<path d="M431.79 776.889C430.185 772.018 430.363 766.736 432.29 761.984C434.217 757.232 437.769 753.321 442.312 750.949C443.232 750.472 444.016 751.882 443.094 752.36C438.86 754.561 435.552 758.204 433.766 762.633C431.98 767.061 431.835 771.983 433.355 776.509C433.685 777.493 432.117 777.867 431.79 776.889Z" fill="white"/>
<path d="M398.285 805.782C407.594 810.584 418.369 811.698 428.462 808.9C429.462 808.622 429.84 810.19 428.842 810.468C418.333 813.359 407.122 812.178 397.446 807.159C396.524 806.68 397.368 805.306 398.285 805.782Z" fill="white"/>
<path d="M477.642 766.892C477.87 768.905 478.595 770.831 479.751 772.495C480.906 774.16 482.457 775.511 484.263 776.427C485.191 776.894 484.346 778.268 483.424 777.804C481.433 776.782 479.723 775.288 478.442 773.452C477.161 771.616 476.349 769.494 476.076 767.271C476.033 767.064 476.07 766.848 476.18 766.667C476.291 766.486 476.465 766.354 476.669 766.298C476.877 766.248 477.096 766.283 477.278 766.394C477.46 766.506 477.591 766.684 477.642 766.892Z" fill="white"/>
<path d="M431.145 226.35C431.512 181.282 433.343 135.777 436.638 89.8377C436.693 88.9257 436.761 88.0274 436.829 87.1154C438.569 63.1995 440.7 39.1974 443.22 15.1091V14.973C443.217 11.0026 441.641 7.19556 438.836 4.3881C436.032 1.58064 432.229 0.00236926 428.262 0H27.1285C23.1756 0.00777452 19.3859 1.57845 16.5844 4.37003C13.783 7.16162 12.1967 10.9481 12.1709 14.9049C8.68992 48.0768 5.96127 81.0854 3.98507 113.931C3.90348 115.006 3.84911 116.068 3.79472 117.143C2.81568 133.382 2.03607 149.58 1.4559 165.737C1.41511 166.69 1.37431 167.643 1.36071 168.596C-2.35173 267.73 1.26154 367.003 12.1709 465.604C12.1995 469.559 13.7872 473.343 16.5884 476.131C19.3896 478.92 23.1777 480.489 27.1285 480.496H428.262C432.229 480.493 436.032 478.915 438.836 476.108C441.641 473.3 443.217 469.493 443.22 465.523V465.373C441.248 447.855 439.517 430.223 438.025 412.478C437.808 409.878 437.595 407.278 437.386 404.678C436.353 391.897 435.451 379.065 434.68 366.184C434.517 363.584 434.368 360.984 434.232 358.385C432.777 332.604 431.825 306.623 431.376 280.443C431.322 277.844 431.281 275.257 431.24 272.644C431.077 259.862 431.027 247.031 431.091 234.15C431.091 231.55 431.104 228.95 431.145 226.35Z" fill="#F0F0F0"/>
<path d="M552.001 102.088C551.999 98.1181 550.422 94.311 547.618 91.5036C544.813 88.6961 541.01 87.1178 537.044 87.1155H135.91C131.957 87.1233 128.168 88.6939 125.366 91.4855C122.565 94.2771 120.978 98.0635 120.953 102.02C107.409 231.291 105.166 358.276 114.235 480.496C115.337 495.619 116.624 510.664 118.097 525.633C118.886 533.65 119.724 541.645 120.613 549.616C120.722 550.651 120.83 551.685 120.953 552.72C120.981 556.675 122.569 560.458 125.37 563.247C128.171 566.036 131.959 567.604 135.91 567.611H537.044C541.01 567.609 544.813 566.031 547.618 563.223C550.422 560.416 551.999 556.609 552.001 552.638V552.489C535.779 408.517 535.779 257.031 552.001 102.225V102.088Z" fill="white"/>
<path d="M552.001 102.088C551.999 98.1181 550.422 94.311 547.618 91.5036C544.813 88.6961 541.01 87.1178 537.044 87.1155H135.91C131.957 87.1233 128.168 88.6939 125.366 91.4855C122.565 94.2771 120.978 98.0635 120.953 102.02C107.409 231.291 105.166 358.276 114.235 480.496C115.337 495.619 116.624 510.664 118.097 525.633C118.886 533.65 119.724 541.645 120.613 549.616C120.722 550.651 120.83 551.685 120.953 552.72C120.981 556.675 122.569 560.458 125.37 563.247C128.171 566.036 131.959 567.604 135.91 567.611H537.044C541.01 567.609 544.813 566.031 547.618 563.223C550.422 560.416 551.999 556.609 552.001 552.638V552.489C535.779 408.517 535.779 257.031 552.001 102.225V102.088ZM549.282 552.72C549.258 555.954 547.958 559.047 545.666 561.327C543.374 563.606 540.275 564.886 537.044 564.889H135.91C132.666 564.884 129.556 563.592 127.262 561.295C124.968 558.999 123.677 555.886 123.672 552.638V552.489C123.577 551.617 123.482 550.733 123.387 549.861C122.448 541.531 121.574 533.178 120.762 524.802C119.335 510.115 118.07 495.346 116.969 480.496C107.899 358.344 110.129 231.441 123.672 102.225V102.088C123.677 98.8409 124.968 95.7277 127.262 93.4313C129.556 91.135 132.666 89.8427 135.91 89.8378H537.044C540.278 89.8389 543.379 91.1206 545.672 93.4031C547.965 95.6856 549.263 98.7835 549.282 102.02C533.06 256.95 533.06 408.598 549.282 552.72Z" fill="#E4E4E4"/>
<path d="M163.559 226.351C162.527 226.353 161.539 226.766 160.81 227.497C160.081 228.228 159.672 229.219 159.672 230.252C159.672 231.285 160.081 232.276 160.81 233.007C161.539 233.739 162.527 234.151 163.559 234.154H489.54C490.572 234.151 491.56 233.739 492.289 233.007C493.018 232.276 493.427 231.285 493.427 230.252C493.427 229.219 493.018 228.228 492.289 227.497C491.56 226.766 490.572 226.353 489.54 226.351H163.559Z" fill="#E6E6E6"/>
<path d="M163.558 249.762C162.526 249.764 161.536 250.176 160.807 250.908C160.078 251.639 159.668 252.631 159.668 253.664C159.668 254.698 160.078 255.689 160.807 256.42C161.536 257.152 162.526 257.564 163.558 257.566H384.855C385.887 257.564 386.877 257.152 387.606 256.42C388.335 255.689 388.745 254.698 388.745 253.664C388.745 252.631 388.335 251.639 387.606 250.908C386.877 250.176 385.887 249.764 384.855 249.762H163.558Z" fill="#E6E6E6"/>
<path d="M163.558 272.645C162.526 272.646 161.536 273.058 160.807 273.79C160.078 274.521 159.668 275.513 159.668 276.546C159.668 277.58 160.078 278.571 160.807 279.302C161.536 280.034 162.526 280.446 163.558 280.448H489.539C490.571 280.446 491.561 280.034 492.29 279.302C493.02 278.571 493.429 277.58 493.429 276.546C493.429 275.513 493.02 274.521 492.29 273.79C491.561 273.058 490.571 272.646 489.539 272.645H163.558Z" fill="#E6E6E6"/>
<path d="M163.559 296.056C162.527 296.059 161.539 296.471 160.81 297.203C160.081 297.934 159.672 298.925 159.672 299.958C159.672 300.991 160.081 301.982 160.81 302.713C161.539 303.445 162.527 303.857 163.559 303.86H384.855C385.887 303.857 386.876 303.445 387.605 302.713C388.333 301.982 388.743 300.991 388.743 299.958C388.743 298.925 388.333 297.934 387.605 297.203C386.876 296.471 385.887 296.059 384.855 296.056H163.559Z" fill="#E6E6E6"/>
<path d="M163.559 358.385C162.527 358.388 161.539 358.8 160.81 359.531C160.081 360.263 159.672 361.254 159.672 362.287C159.672 363.32 160.081 364.31 160.81 365.042C161.539 365.773 162.527 366.185 163.559 366.188H489.54C490.572 366.185 491.56 365.773 492.289 365.042C493.018 364.31 493.427 363.32 493.427 362.287C493.427 361.254 493.018 360.263 492.289 359.531C491.56 358.8 490.572 358.388 489.54 358.385H163.559Z" fill="#E6E6E6"/>
<path d="M163.558 381.797C162.526 381.799 161.536 382.211 160.807 382.942C160.078 383.674 159.668 384.665 159.668 385.699C159.668 386.732 160.078 387.723 160.807 388.455C161.536 389.186 162.526 389.598 163.558 389.6H384.855C385.887 389.598 386.877 389.186 387.606 388.455C388.335 387.723 388.745 386.732 388.745 385.699C388.745 384.665 388.335 383.674 387.606 382.942C386.877 382.211 385.887 381.799 384.855 381.797H163.558Z" fill="#E6E6E6"/>
<path d="M163.558 404.679C162.526 404.681 161.536 405.093 160.807 405.824C160.078 406.556 159.668 407.547 159.668 408.581C159.668 409.614 160.078 410.605 160.807 411.337C161.536 412.068 162.526 412.48 163.558 412.482H489.539C490.571 412.48 491.561 412.068 492.29 411.337C493.02 410.605 493.429 409.614 493.429 408.581C493.429 407.547 493.02 406.556 492.29 405.824C491.561 405.093 490.571 404.681 489.539 404.679H163.558Z" fill="#E6E6E6"/>
<path d="M163.559 428.091C162.527 428.094 161.539 428.506 160.81 429.237C160.081 429.969 159.672 430.959 159.672 431.992C159.672 433.025 160.081 434.016 160.81 434.748C161.539 435.479 162.527 435.891 163.559 435.894H384.855C385.887 435.891 386.876 435.479 387.605 434.748C388.333 434.016 388.743 433.025 388.743 431.992C388.743 430.959 388.333 429.969 387.605 429.237C386.876 428.506 385.887 428.094 384.855 428.091H163.559Z" fill="#E6E6E6"/>
<path d="M228.057 177.906H165.796C164.989 177.905 164.216 177.584 163.646 177.013C163.076 176.442 162.755 175.668 162.754 174.861V164.875C162.755 164.068 163.076 163.294 163.646 162.723C164.216 162.153 164.989 161.831 165.796 161.831H228.057C228.863 161.831 229.636 162.153 230.207 162.723C230.777 163.294 231.098 164.068 231.099 164.875V174.861C231.098 175.668 230.777 176.442 230.207 177.013C229.636 177.584 228.863 177.905 228.057 177.906Z" fill="#09A380"/>
<path d="M444.355 499.112L425.284 505.421C422.106 506.472 418.927 507.524 415.749 508.575C412.805 509.546 409.62 510.7 406.468 510.282C404.29 509.994 401.808 508.739 401.129 506.496C400.487 504.374 401.848 502.153 403.497 500.898C408.048 497.432 413.802 500.96 417.027 504.549C420.971 508.939 423.203 514.606 426.902 519.201C430.196 523.322 434.371 526.65 439.12 528.941C448.558 533.402 460.071 532.928 468.489 526.427C478.542 518.665 479.567 505.211 479.621 493.473C479.602 492.944 479.38 492.442 478.999 492.074C478.618 491.706 478.11 491.501 477.581 491.501C477.052 491.501 476.544 491.706 476.163 492.074C475.783 492.442 475.56 492.944 475.541 493.473C475.493 504.111 474.888 517.151 465.199 523.808C455.917 530.184 443.718 528.493 435.173 521.699C430.411 517.913 427.482 512.976 424.355 507.864C421.303 502.874 417.514 498.037 411.77 496.096C409.307 495.2 406.61 495.183 404.136 496.048C401.662 496.912 399.562 498.606 398.191 500.842C397.565 501.897 397.171 503.073 397.034 504.293C396.898 505.513 397.022 506.747 397.4 507.915C397.777 509.082 398.399 510.156 399.223 511.064C400.048 511.973 401.056 512.695 402.181 513.182C408.841 516.359 416.46 512.637 422.873 510.515L445.44 503.05C447.921 502.229 446.858 498.284 444.355 499.112Z" fill="#09A380"/>
<path d="M387.841 799.251L374.468 803.661L351.109 754.128L370.847 747.619L387.841 799.251Z" fill="#9F616A"/>
<path d="M397.378 810.5L396.467 807.737L394.074 800.454L392.442 795.5L387.982 796.97L387.057 796.902L374.806 796.071L373.174 795.963L370.754 795.799L368.252 795.622L361.263 805.79H361.249C358.636 806.642 356.219 808.005 354.137 809.799C352.055 811.594 350.349 813.784 349.12 816.244C348.97 816.544 348.834 816.843 348.698 817.142C348.361 817.875 348.075 818.63 347.842 819.402C346.783 822.738 346.587 826.287 347.27 829.72C347.446 830.571 347.669 831.411 347.937 832.238L347.978 832.374L348.141 832.878L349.12 832.551L357.714 829.72L387.819 819.797L393.788 817.823L395.624 817.21H395.638L399.2 816.04L397.378 810.5Z" fill="#2F2E41"/>
<path d="M261.082 810.896L247.003 810.894L240.305 756.532L261.085 756.533L261.082 810.896Z" fill="#9F616A"/>
<path d="M238.551 572.583L232.309 583.391C232.309 583.391 225.451 585.266 227.692 607.645C229.275 623.448 229.788 694.202 233.773 740.168C235.432 759.299 237.691 774.136 240.88 778.93L242.843 780.69L263.33 782.65L263.847 782.469L271.37 729.279C272.721 719.731 272.518 710.027 270.771 700.544L269.412 685.571L288.276 609.757C288.276 609.757 307.485 658.347 319.723 704.627C322.669 715.768 333.859 722.853 338.102 732.413C339.523 735.616 340.92 738.72 342.282 741.697C351.255 761.307 355.753 775.584 359.157 776.77H361.876L378.194 771.325L381.403 763.246L356.437 689.654L337.741 570.831C302.119 551.658 268.703 549.524 238.551 572.583Z" fill="#2F2E41"/>
<path d="M340.595 412.478C339.365 409.766 337.919 407.158 336.271 404.678C332.503 398.801 327.267 394.01 321.082 390.781L315.724 389.596L306.124 387.473L301.066 381.797L292.771 372.5H264.216L260.395 381.797L257.186 389.596L255.813 392.918L231.364 405.155C231.35 405.155 231.35 405.155 231.337 405.168C231.663 407.618 231.985 410.055 232.302 412.478C232.996 417.746 233.648 422.95 234.26 428.09C234.573 430.704 234.872 433.304 235.158 435.89C236.069 444.003 236.853 451.975 237.51 459.806C238.095 466.802 238.562 473.699 238.911 480.496C239.761 495.932 239.825 511.401 239.101 526.844C238.911 530.478 242.514 534.616 242.229 538.169C241.753 543.968 237.279 549.113 236.49 554.653C236.001 558.056 236.218 561.677 235.362 564.889C235.124 565.829 234.767 566.734 234.301 567.584C234.301 567.598 234.287 567.598 234.287 567.611C224.497 585.116 232.18 576.758 231.269 580.692L231.704 580.801C231.908 580.856 232.533 581.019 233.54 581.25C239.291 582.625 263.006 560.343 278.929 560.343C288.488 560.343 313.794 576.078 322.265 577.221C328.969 578.12 334.952 578.936 338.514 575.792C339.548 574.875 340.338 573.715 340.812 572.416L340.853 572.294L340.84 572.171L340.5 567.611L340.296 564.889L337.386 525.823C335.761 523.806 334.734 521.373 334.421 518.801C334.109 516.229 334.523 513.62 335.618 511.272L336.216 510.006L334.013 480.496L333.606 474.983L333.456 473.118V473.105L332.395 458.853L334.952 451.067V451.054L339.928 435.89L342.485 428.09L344.089 423.19L344.198 422.864C343.342 419.291 342.135 415.812 340.595 412.478Z" fill="#09A380"/>
<path d="M365.402 553.236L337.99 482.316L325.258 456.42L349.741 442.881L369.459 477.658L382.676 550.319C384.757 551.741 386.365 553.753 387.295 556.097C388.224 558.441 388.433 561.009 387.893 563.473C387.353 565.936 386.09 568.181 384.266 569.92C382.441 571.66 380.139 572.813 377.655 573.232C375.171 573.652 372.618 573.318 370.325 572.275C368.032 571.231 366.103 569.525 364.785 567.375C363.468 565.225 362.823 562.731 362.933 560.211C363.043 557.692 363.903 555.263 365.402 553.236Z" fill="#9F616A"/>
<path d="M365.954 455.532L358.937 450.985L350.874 435.89L346.713 428.09L344.089 423.19L342.974 421.094L330.369 412.478L321.856 406.652L314.921 412.478L311.617 415.255L314.853 428.09L316.812 435.89L321.081 452.809L333.605 474.983L336.719 480.496L338.5 483.667L338.514 483.695L338.758 484.116L370.4 482.796L371.393 482.755L371.447 480.496L371.475 479.679C371.488 479.271 371.488 478.862 371.488 478.454C371.484 470.482 369.587 462.626 365.954 455.532Z" fill="#09A380"/>
<path d="M126.465 525.033L182.544 473.736L202.033 452.465L223.518 470.393L198.295 501.402L135.446 540.088C134.877 542.545 133.588 544.775 131.743 546.492C129.898 548.21 127.583 549.336 125.094 549.726C122.605 550.116 120.056 549.752 117.776 548.681C115.495 547.61 113.586 545.881 112.294 543.716C111.003 541.55 110.387 539.048 110.527 536.53C110.667 534.012 111.556 531.594 113.079 529.585C114.603 527.577 116.691 526.07 119.076 525.259C121.462 524.448 124.035 524.369 126.465 525.033Z" fill="#9F616A"/>
<path d="M242.229 435.89L242.12 428.091L241.916 412.478L241.834 406.421L241.603 406.257C240.337 405.426 238.902 404.886 237.401 404.678C236.082 404.459 234.736 404.459 233.417 404.678C232.722 404.786 232.036 404.945 231.364 405.155C231.35 405.155 231.35 405.155 231.337 405.168C227.306 406.617 223.747 409.14 221.043 412.464L221.03 412.478C216.952 417.333 213.337 422.561 210.233 428.091C208.697 430.704 207.228 433.345 205.855 435.89C200.66 445.568 196.921 453.953 196.853 454.103L181.324 474.289L181.542 474.656L184.955 480.496L197.465 501.907L199.45 505.31L204.522 502.601C210.434 499.444 215.096 494.364 217.739 488.2L219.548 481.285L220.214 480.496L237.51 459.806L242.46 453.871L242.229 435.89Z" fill="#09A380"/>
<path d="M301.495 345.862C303.811 331.577 294.12 318.117 279.85 315.799C265.579 313.481 252.134 323.182 249.818 337.467C247.502 351.752 257.193 365.212 271.464 367.53C285.734 369.848 299.18 360.147 301.495 345.862Z" fill="#9F616A"/>
<path d="M250.351 324.486C249.187 320.41 246.861 316.917 248.024 316.917C249.188 316.917 249.769 314.005 249.769 314.005C249.769 314.005 250.933 313.423 251.514 314.005C252.096 314.587 252.678 309.929 252.678 309.929C252.678 309.929 253.259 308.182 253.841 309.347C254.423 310.511 254.423 309.929 255.004 308.182C255.586 306.435 258.495 305.27 258.495 305.27C258.495 305.27 269.547 305.853 271.292 303.523C273.037 301.194 292.815 302.941 296.887 305.853C300.959 308.764 317.002 313.969 307.484 330.303C312.923 339.832 304.803 356.826 302.704 358.842C299.387 362.031 297.09 363.18 281.391 366.307C278.319 366.919 270.77 341.193 270.77 341.193C270.77 341.193 251.514 328.563 250.351 324.486Z" fill="#2F2E41"/>
<path d="M261.932 808.771L261.089 808.431L245.941 802.251L243.616 801.312L233.798 808.771H233.784C228.238 808.778 222.92 810.987 218.999 814.915C215.078 818.842 212.874 824.167 212.871 829.72V830.4H266.623V808.771H261.932Z" fill="#2F2E41"/>
<path d="M419.924 831.34C419.925 831.553 419.883 831.765 419.803 831.962C419.722 832.16 419.603 832.34 419.453 832.492C419.302 832.643 419.124 832.764 418.927 832.847C418.73 832.929 418.519 832.972 418.306 832.973H141.863C141.432 832.973 141.019 832.802 140.714 832.496C140.409 832.191 140.238 831.778 140.238 831.346C140.238 830.915 140.409 830.501 140.714 830.196C141.019 829.891 141.432 829.72 141.863 829.72H418.306C418.734 829.721 419.145 829.892 419.449 830.195C419.752 830.499 419.923 830.91 419.924 831.34Z" fill="#CCCCCC"/>
<path d="M134.522 0C132.383 38.0681 118.404 74.5133 94.5428 104.233C70.6816 133.952 38.133 155.457 1.45457 165.737C1.41378 166.69 1.37297 167.643 1.35938 168.595C38.7977 158.286 72.0553 136.465 96.4367 106.214C120.818 75.9626 135.092 38.8095 137.242 0H134.522Z" fill="white"/>
<path d="M92.8719 0C86.5527 24.0339 75.4133 46.5291 60.1318 66.1157C44.8503 85.7024 25.7464 101.971 3.98332 113.931C3.90173 115.006 3.84736 116.068 3.79297 117.143C26.3476 105.01 46.1533 88.3417 61.9669 68.183C77.7806 48.0243 89.2606 24.8109 95.6866 0H92.8719Z" fill="white"/>
</g>
<defs>
<clipPath id="clip0_572_1019">
<rect width="552" height="833" fill="white"/>
</clipPath>
</defs>
</svg>
