<svg width="635" height="585" viewBox="0 0 635 585" fill="none" xmlns="http://www.w3.org/2000/svg">
<g clip-path="url(#clip0_573_1496)">
<path d="M291.296 321.502C291.182 321.502 291.111 321.5 291.086 321.498L277.522 321.5V319.5H291.135C291.45 319.511 297.881 319.692 303.806 312.503C312.636 301.788 319.887 275.263 304.288 209.747C283.312 121.651 300.807 43.8237 309.301 14.4517C309.72 12.9985 309.795 11.4679 309.52 9.98086C309.245 8.49378 308.629 7.09098 307.719 5.88326C306.809 4.67554 305.63 3.696 304.276 3.02205C302.923 2.34811 301.431 1.99821 299.918 2.00001H97.343C95.8029 2.00207 94.2849 2.36725 92.9124 3.06589C91.5398 3.76454 90.3513 4.77698 89.4434 6.02102C85.8447 10.9712 80.9062 20.481 77.8159 37.6763L75.8477 37.3228C79.0049 19.7539 84.104 9.96438 87.8257 4.84524C88.9194 3.34623 90.3512 2.12626 92.0049 1.2844C93.6585 0.442535 95.4874 0.00249081 97.343 5.44202e-06H299.918C301.741 -0.00174809 303.539 0.420291 305.17 1.23278C306.801 2.04527 308.221 3.22594 309.317 4.68152C310.414 6.13711 311.157 7.82772 311.487 9.61979C311.818 11.4119 311.728 13.2563 311.223 15.0073C302.772 44.2271 285.368 121.651 306.233 209.284C322.052 275.722 314.447 302.821 305.283 313.856C299.238 321.134 292.577 321.502 291.296 321.502Z" fill="#E6E6E6"/>
<path d="M254.796 358.002C254.683 358.002 254.611 358 254.586 357.998L241.022 358V356H254.635C254.952 356.009 261.381 356.192 267.306 349.003C276.136 338.288 283.387 311.763 267.788 246.247C246.813 158.151 264.307 80.3237 272.802 50.9517C273.22 49.4985 273.295 47.9679 273.02 46.4809C272.746 44.9938 272.129 43.591 271.219 42.3833C270.309 41.1755 269.13 40.196 267.776 39.5221C266.423 38.8481 264.931 38.4982 263.419 38.5H60.8431C59.303 38.5021 57.7851 38.8672 56.4125 39.5659C55.0399 40.2645 53.8514 41.277 52.9435 42.521C49.3449 47.4712 44.4064 56.981 41.3162 74.1763L39.3477 73.8228C42.505 56.2539 47.6041 46.4644 51.3258 41.3452C52.4195 39.8462 53.8514 38.6263 55.505 37.7844C57.1587 36.9425 58.9875 36.5025 60.8431 36.5H263.419C265.241 36.4983 267.039 36.9203 268.67 37.7328C270.301 38.5453 271.721 39.7259 272.817 41.1815C273.914 42.6371 274.657 44.3277 274.987 46.1198C275.318 47.9119 275.228 49.7563 274.723 51.5073C266.272 80.7271 248.868 158.151 269.734 245.784C285.552 312.222 277.947 339.321 268.783 350.356C262.738 357.634 256.078 358.002 254.796 358.002Z" fill="#CCCCCC"/>
<path d="M218.294 394.502C218.181 394.502 218.11 394.5 218.085 394.498L18.6315 394.5C16.7113 394.502 14.8197 394.033 13.1224 393.135C11.425 392.237 9.97365 390.937 8.89528 389.348C7.8169 387.759 7.14439 385.93 6.93657 384.021C6.72875 382.112 6.99197 380.181 7.7032 378.397C14.94 360.317 24.684 316.938 8.63472 229.558C-10.3167 126.378 6.64986 89.0884 14.824 77.8452C15.9178 76.3462 17.3497 75.1262 19.0034 74.2844C20.6571 73.4425 22.486 73.0025 24.3416 73H226.917C228.739 72.9983 230.537 73.4203 232.168 74.2328C233.799 75.0453 235.219 76.2259 236.316 77.6815C237.412 79.1371 238.155 80.8277 238.486 82.6198C238.817 84.4119 238.726 86.2563 238.221 88.0073C229.77 117.227 212.367 194.651 233.232 282.284C249.05 348.722 241.446 375.821 232.281 386.856C226.236 394.134 219.576 394.502 218.294 394.502ZM24.3416 75C22.8015 75.0021 21.2835 75.3672 19.9109 76.0659C18.5383 76.7645 17.3497 77.777 16.4417 79.021C8.41914 90.0557 -8.20976 126.778 10.6017 229.197C25.9336 312.67 18.4977 356.811 9.55986 379.141C8.95749 380.614 8.73139 382.214 8.90196 383.796C9.07254 385.379 9.63442 386.894 10.5369 388.205C11.4318 389.529 12.6378 390.612 14.0491 391.361C15.4604 392.11 17.0339 392.501 18.6315 392.5H218.134C218.449 392.515 224.88 392.693 230.805 385.503C239.634 374.788 246.885 348.263 231.286 282.747C210.311 194.651 227.805 116.824 236.3 87.4517C236.719 85.9985 236.793 84.4679 236.519 82.9809C236.244 81.4938 235.627 80.091 234.717 78.8833C233.807 77.6755 232.629 76.696 231.275 76.0221C229.921 75.3481 228.429 74.9982 226.917 75H24.3416Z" fill="#3F3D56"/>
<path d="M192.461 163H33.4609C31.3392 163 29.3044 162.157 27.8041 160.657C26.3038 159.157 25.4609 157.122 25.4609 155C25.4609 152.878 26.3038 150.843 27.8041 149.343C29.3044 147.843 31.3392 147 33.4609 147H192.461C194.583 147 196.618 147.843 198.118 149.343C199.618 150.843 200.461 152.878 200.461 155C200.461 157.122 199.618 159.157 198.118 160.657C196.618 162.157 194.583 163 192.461 163Z" fill="#09A380"/>
<path d="M192.461 197H33.4609C31.3392 197 29.3044 196.157 27.8041 194.657C26.3038 193.157 25.4609 191.122 25.4609 189C25.4609 186.878 26.3038 184.843 27.8041 183.343C29.3044 181.843 31.3392 181 33.4609 181H192.461C194.583 181 196.618 181.843 198.118 183.343C199.618 184.843 200.461 186.878 200.461 189C200.461 191.122 199.618 193.157 198.118 194.657C196.618 196.157 194.583 197 192.461 197Z" fill="#CCCCCC"/>
<path d="M192.461 231H33.4609C31.3392 231 29.3044 230.157 27.8041 228.657C26.3038 227.157 25.4609 225.122 25.4609 223C25.4609 220.878 26.3038 218.843 27.8041 217.343C29.3044 215.843 31.3392 215 33.4609 215H192.461C194.583 215 196.618 215.843 198.118 217.343C199.618 218.843 200.461 220.878 200.461 223C200.461 225.122 199.618 227.157 198.118 228.657C196.618 230.157 194.583 231 192.461 231Z" fill="#CCCCCC"/>
<path d="M204.461 265H45.4609C43.3392 265 41.3044 264.157 39.8041 262.657C38.3038 261.157 37.4609 259.122 37.4609 257C37.4609 254.878 38.3038 252.843 39.8041 251.343C41.3044 249.843 43.3392 249 45.4609 249H204.461C206.583 249 208.618 249.843 210.118 251.343C211.618 252.843 212.461 254.878 212.461 257C212.461 259.122 211.618 261.157 210.118 262.657C208.618 264.157 206.583 265 204.461 265Z" fill="#CCCCCC"/>
<path d="M204.461 299H45.4609C43.3392 299 41.3044 298.157 39.8041 296.657C38.3038 295.157 37.4609 293.122 37.4609 291C37.4609 288.878 38.3038 286.843 39.8041 285.343C41.3044 283.843 43.3392 283 45.4609 283H204.461C206.583 283 208.618 283.843 210.118 285.343C211.618 286.843 212.461 288.878 212.461 291C212.461 293.122 211.618 295.157 210.118 296.657C208.618 298.157 206.583 299 204.461 299Z" fill="#CCCCCC"/>
<path d="M108.461 129H33.4609C31.3392 129 29.3044 128.157 27.8041 126.657C26.3038 125.157 25.4609 123.122 25.4609 121C25.4609 118.878 26.3038 116.843 27.8041 115.343C29.3044 113.843 31.3392 113 33.4609 113H108.461C110.583 113 112.618 113.843 114.118 115.343C115.618 116.843 116.461 118.878 116.461 121C116.461 123.122 115.618 125.157 114.118 126.657C112.618 128.157 110.583 129 108.461 129Z" fill="#09A380"/>
<path d="M98.7748 353.822C100.389 346.987 107.973 344.746 114.173 344.997C118.091 345.261 121.976 345.876 125.784 346.834C129.768 347.725 133.713 348.781 137.639 349.9C144.837 351.953 151.962 354.436 159.279 356.041C165.37 357.377 171.99 358.161 178.065 356.316C183.904 354.543 188.858 350.19 190.447 344.171C191.944 338.5 189.888 332.299 184.393 329.707C179.381 327.343 173.05 328.545 170.566 333.89C167.765 339.917 170.564 346.49 174.999 350.851C177.519 353.217 180.28 355.315 183.236 357.108C186.237 359.153 189.577 360.648 193.1 361.526C198.885 362.761 205.776 360.941 208.76 355.414C209.423 354.163 209.822 352.788 209.931 351.377C210.108 349.455 207.107 349.467 206.931 351.377C206.426 356.88 199.981 359.458 195.161 358.854C191.908 358.315 188.801 357.109 186.036 355.312C183.367 353.756 180.838 351.972 178.478 349.979C174.39 346.442 170.558 340.62 173.303 335.1C175.539 330.605 181.367 330.65 184.911 333.549C189.204 337.059 188.438 343.431 185.607 347.6C182.472 352.217 176.79 354.152 171.433 354.36C165.612 354.587 159.84 353.251 154.276 351.672C147.364 349.709 140.52 347.512 133.574 345.664C129.631 344.615 125.657 343.668 121.643 342.931C117.847 342.094 113.948 341.825 110.073 342.13C103.813 342.853 97.4234 346.497 95.882 353.024C95.4386 354.902 98.3306 355.703 98.7748 353.822Z" fill="#3F3D56"/>
<path d="M405.275 523.44C405.448 543.131 406.89 562.79 409.593 582.295C409.687 582.98 409.791 583.665 409.885 584.35L594.288 583.319C594.829 582.639 595.362 581.951 595.879 581.254C597.6 578.948 599.214 576.577 600.695 574.124C607.814 562.307 611.074 548.472 607.808 538.926L607.749 538.777C607.044 536.687 605.933 534.757 604.48 533.097C597.033 524.714 581.976 526.112 568.312 532.878C580.568 519.463 590.326 502.535 591.068 487.425C591.795 472.687 584.088 462.158 575.73 453.211C575.455 452.915 575.181 452.627 574.907 452.34C574.774 452.192 574.633 452.052 574.5 451.904C567.979 445.086 560.376 438.364 549.371 439.177C537.301 440.071 523.92 450.18 514.537 461.96C505.155 473.732 498.92 487.106 492.6 500.157C486.272 513.201 479.426 526.577 469.272 537.726C483.025 520.33 494.114 500.537 498.21 481.287C502.306 462.037 498.701 443.549 486.444 434.483C482.723 431.815 478.417 430.078 473.886 429.416C473.357 429.328 472.82 429.256 472.275 429.193C460.928 427.902 447.38 431.827 435.853 441.207C423.159 451.536 414.358 466.848 409.979 481.384C405.6 495.919 405.134 509.913 405.275 523.44Z" fill="#F2F2F2"/>
<path d="M525.922 583.701L529.448 583.682C530.568 582.982 531.693 582.29 532.823 581.606C533.522 581.165 534.23 580.74 534.938 580.306C546.634 573.163 558.404 566.311 570.246 559.75C582.078 553.184 593.969 546.921 605.92 540.96C606.237 540.822 606.495 540.577 606.65 540.269C606.805 539.96 606.848 539.607 606.769 539.27C606.757 539.226 606.737 539.184 606.711 539.147C606.544 538.834 606.171 538.704 605.628 538.971C604.162 539.706 602.687 540.441 601.222 541.193C589.238 547.256 577.306 553.621 565.426 560.289C553.554 566.955 541.749 573.914 530.012 581.168C529.765 581.318 529.518 581.476 529.272 581.626C528.152 582.318 527.041 583.01 525.922 583.701Z" fill="white"/>
<path d="M480.457 583.955L482.638 583.943C483.129 583.255 483.613 582.567 484.104 581.879C495.659 565.676 507.211 549.473 518.76 533.27C537.674 506.744 556.582 480.218 575.485 453.691C575.597 453.548 575.68 453.385 575.73 453.211C575.892 452.623 575.46 452.279 574.907 452.34C574.674 452.373 574.451 452.456 574.252 452.582C574.054 452.709 573.884 452.876 573.755 453.073C563.151 467.949 552.55 482.82 541.951 497.685C523.136 524.078 504.323 550.469 485.513 576.857C484.317 578.532 483.12 580.216 481.924 581.891C481.432 582.579 480.94 583.267 480.457 583.955Z" fill="white"/>
<path d="M431.882 571.293C431.994 574.968 432.237 578.584 432.554 582.167C432.616 582.852 432.678 583.537 432.739 584.222L435.027 584.209C434.957 583.524 434.887 582.839 434.826 582.154C434.342 576.978 433.999 571.744 433.953 566.367C433.892 551.461 435.344 536.588 438.288 521.976C441.417 506.242 445.91 490.81 451.716 475.856C457.81 460.084 465.156 444.825 473.686 430.226C473.847 429.988 473.918 429.701 473.888 429.416C473.793 428.764 472.925 428.57 472.276 429.193C472.148 429.315 472.038 429.455 471.948 429.608C470.893 431.423 469.857 433.243 468.84 435.068C460.625 449.748 453.594 465.06 447.812 480.858C442.306 495.862 438.117 511.316 435.294 527.047C432.65 541.64 431.506 556.467 431.882 571.293Z" fill="white"/>
<path d="M209.006 354.532C208.626 354.217 208.349 353.796 208.209 353.322C208.068 352.849 208.071 352.345 208.217 351.874C208.362 351.402 208.644 350.984 209.027 350.673C209.41 350.361 209.876 350.17 210.368 350.123C215.822 349.596 221.327 350.16 226.561 351.783L279.876 368.248C280.566 368.461 281.207 368.808 281.763 369.269C282.319 369.73 282.779 370.296 283.116 370.935C283.454 371.574 283.662 372.273 283.729 372.992C283.796 373.711 283.721 374.436 283.508 375.126C283.295 375.816 282.948 376.458 282.487 377.014C282.026 377.57 281.46 378.03 280.821 378.367C280.183 378.704 279.484 378.912 278.765 378.979C278.045 379.047 277.32 378.972 276.63 378.758L223.315 362.293C218.077 360.681 213.213 358.043 209.006 354.532Z" fill="#3F3D56"/>
<path d="M427.553 422.932C426.105 422.325 424.808 421.407 423.752 420.244C422.697 419.081 421.91 417.7 421.445 416.2C420.981 414.7 420.852 413.116 421.066 411.56C421.28 410.004 421.833 408.514 422.685 407.195L413.547 359.404L436.838 357.588L438.244 404.335C440.365 405.913 441.834 408.215 442.371 410.804C442.908 413.393 442.477 416.089 441.159 418.382C439.841 420.674 437.729 422.404 435.221 423.242C432.713 424.081 429.985 423.97 427.553 422.932Z" fill="#FFB8B8"/>
<path d="M412.109 398.267L388.386 287.784C387.412 283.246 388.28 278.507 390.8 274.61C393.32 270.712 397.285 267.975 401.823 267.001C406.36 266.027 411.099 266.895 414.997 269.415C418.895 271.935 421.632 275.9 422.606 280.438L446.329 390.919C446.578 392.086 446.354 393.304 445.707 394.306C445.059 395.308 444.04 396.012 442.874 396.264L417.453 401.722C416.876 401.846 416.279 401.855 415.698 401.749C415.116 401.642 414.562 401.423 414.065 401.102C413.569 400.781 413.141 400.365 412.805 399.879C412.469 399.392 412.233 398.845 412.109 398.267Z" fill="#09A380"/>
<path d="M373.17 572.064H360.911L355.078 524.776L373.173 524.777L373.17 572.064Z" fill="#FFB8B8"/>
<path d="M352.152 568.561H375.796V583.447H337.266C337.266 581.492 337.651 579.557 338.399 577.75C339.147 575.944 340.244 574.303 341.626 572.921C343.008 571.538 344.649 570.442 346.456 569.694C348.262 568.946 350.198 568.561 352.152 568.561Z" fill="#2F2E41"/>
<path d="M414.17 571.064H401.911L396.078 523.776L414.173 523.777L414.17 571.064Z" fill="#FFB8B8"/>
<path d="M393.152 567.561H416.796V582.447H378.266C378.266 580.492 378.651 578.557 379.399 576.75C380.147 574.944 381.244 573.303 382.626 571.921C384.008 570.538 385.649 569.442 387.456 568.694C389.262 567.946 391.198 567.561 393.152 567.561Z" fill="#2F2E41"/>
<path d="M358.481 563.243C358.021 562.866 357.642 562.401 357.364 561.875C357.087 561.349 356.917 560.773 356.865 560.181L342.612 403.402C342.557 402.793 342.626 402.179 342.816 401.599C343.005 401.018 343.311 400.481 343.715 400.023C344.118 399.564 344.611 399.192 345.163 398.93C345.715 398.667 346.315 398.52 346.925 398.497L418.405 395.817C419.023 395.794 419.64 395.898 420.216 396.125C420.793 396.351 421.316 396.693 421.754 397.131C422.192 397.568 422.535 398.091 422.761 398.667C422.988 399.243 423.093 399.86 423.071 400.479L417.357 556.655C417.315 557.749 416.877 558.789 416.124 559.583C415.372 560.378 414.357 560.871 413.267 560.972L398.854 562.282C398.257 562.337 397.654 562.271 397.082 562.089C396.511 561.907 395.981 561.613 395.525 561.223C395.068 560.833 394.694 560.356 394.425 559.82C394.156 559.283 393.997 558.699 393.957 558.1L387.343 458.883C387.338 458.692 387.295 458.505 387.217 458.331C387.139 458.157 387.027 458 386.888 457.87C386.749 457.739 386.585 457.638 386.406 457.572C386.228 457.506 386.037 457.476 385.847 457.484H385.841C385.65 457.476 385.459 457.507 385.28 457.574C385.101 457.641 384.937 457.744 384.798 457.875C384.659 458.007 384.547 458.165 384.47 458.34C384.393 458.515 384.351 458.703 384.348 458.895L378.429 558.78C378.37 559.85 377.929 560.863 377.187 561.635C376.445 562.408 375.451 562.889 374.385 562.991L361.794 564.251C361.203 564.312 360.605 564.254 360.036 564.081C359.467 563.908 358.938 563.623 358.481 563.243Z" fill="#2F2E41"/>
<path d="M385.975 243.523C399.54 243.523 410.536 232.527 410.536 218.962C410.536 205.398 399.54 194.401 385.975 194.401C372.41 194.401 361.414 205.398 361.414 218.962C361.414 232.527 372.41 243.523 385.975 243.523Z" fill="#FFB8B8"/>
<path d="M338.679 404.463C338.241 403.966 337.92 403.379 337.738 402.742C337.556 402.106 337.518 401.437 337.626 400.784C342.16 373.223 339.605 332.71 336.662 303.577C335.894 295.849 337.176 288.055 340.378 280.98C343.58 273.905 348.59 267.799 354.903 263.276L367.73 252.281C368.583 251.559 369.67 251.174 370.787 251.199L402.654 252.11C403.803 252.141 404.896 252.613 405.707 253.427L410.631 264.331L410.682 264.368C416.55 268.681 421.257 274.381 424.383 280.959C427.51 287.536 428.957 294.785 428.597 302.059L423.906 398.995C423.846 400.122 423.367 401.186 422.563 401.978C421.759 402.77 420.687 403.233 419.559 403.276L342.212 405.993C342.162 405.994 342.112 405.995 342.063 405.995C341.422 405.996 340.788 405.86 340.205 405.596C339.621 405.331 339.101 404.945 338.679 404.463Z" fill="#09A380"/>
<path d="M245.902 364.012C245.863 362.442 246.169 360.882 246.799 359.444C247.428 358.005 248.365 356.721 249.544 355.684C250.723 354.646 252.115 353.88 253.622 353.438C255.13 352.997 256.715 352.892 258.268 353.129L298.133 325.231L309.322 345.739L267.246 366.155C266.673 368.736 265.174 371.018 263.032 372.568C260.889 374.118 258.253 374.828 255.622 374.564C252.991 374.299 250.548 373.079 248.757 371.135C246.965 369.19 245.949 366.656 245.902 364.012Z" fill="#FFB8B8"/>
<path d="M279.45 368.861C278.865 368.773 278.304 368.57 277.799 368.264C277.293 367.957 276.853 367.554 276.505 367.076L261.12 346.116C260.415 345.154 260.121 343.951 260.302 342.771C260.483 341.592 261.124 340.533 262.085 339.825L353.18 272.962C356.921 270.216 361.601 269.068 366.188 269.772C368.46 270.121 370.641 270.913 372.606 272.104C374.571 273.296 376.283 274.862 377.643 276.715C379.002 278.568 379.984 280.67 380.531 282.902C381.079 285.134 381.181 287.452 380.833 289.724C380.484 291.995 379.692 294.176 378.5 296.141C377.309 298.107 375.742 299.818 373.89 301.178L282.795 368.041C282.027 368.608 281.097 368.914 280.142 368.914C279.91 368.914 279.679 368.896 279.45 368.861Z" fill="#09A380"/>
<path d="M387.234 240.827C390.491 236.833 390.134 230.75 387.52 226.309C384.906 221.868 380.468 218.809 375.902 216.42C371.336 214.031 366.485 212.152 362.188 209.307C357.89 206.463 358.078 194.42 356.934 189.395L359.663 190.304C358.614 188.962 358.277 184.997 357.228 183.656C360.312 183.96 362.683 186.888 365.767 187.193L363.988 182.416C374.562 181.764 381.136 189.112 391.711 188.46C396.95 188.137 402.64 187.933 406.947 190.934C410.69 193.541 412.584 198.054 413.827 202.443C416.497 211.866 416.911 222.421 412.301 231.062C407.691 239.703 397.064 245.526 387.781 242.406L387.234 240.827Z" fill="#2F2E41"/>
<path d="M252.387 584H633.387C633.652 584 633.906 583.895 634.094 583.707C634.281 583.52 634.387 583.265 634.387 583C634.387 582.735 634.281 582.48 634.094 582.293C633.906 582.105 633.652 582 633.387 582H252.387C252.122 582 251.867 582.105 251.68 582.293C251.492 582.48 251.387 582.735 251.387 583C251.387 583.265 251.492 583.52 251.68 583.707C251.867 583.895 252.122 584 252.387 584Z" fill="#3F3D56"/>
</g>
<defs>
<clipPath id="clip0_573_1496">
<rect width="634.387" height="584.35" fill="white"/>
</clipPath>
</defs>
</svg>
