<svg width="26" height="26" viewBox="0 0 26 26" fill="none" xmlns="http://www.w3.org/2000/svg">
<path fill-rule="evenodd" clip-rule="evenodd" d="M16.2513 2.16675H18.418C20.4607 2.16675 21.4821 2.16675 22.1167 2.80135C22.7513 3.43595 22.7513 4.45733 22.7513 6.50008V23.0209H23.8346C24.2834 23.0209 24.6471 23.3847 24.6471 23.8334C24.6471 24.2821 24.2834 24.6459 23.8346 24.6459H2.16797C1.71924 24.6459 1.35547 24.2821 1.35547 23.8334C1.35547 23.3847 1.71924 23.0209 2.16797 23.0209H3.2513V9.75008C3.2513 7.70733 3.2513 6.68595 3.8859 6.05135C4.52051 5.41675 5.54188 5.41675 7.58463 5.41675H11.918C13.9607 5.41675 14.9821 5.41675 15.6167 6.05135C16.2513 6.68595 16.2513 7.70733 16.2513 9.75008V23.0209H17.8763V9.75008L17.8763 9.65314C17.8764 8.71536 17.8765 7.85556 17.7825 7.15613C17.6789 6.38592 17.4353 5.57185 16.7657 4.9023C16.0962 4.23275 15.2821 3.98912 14.5119 3.88556C13.8223 3.79285 12.9769 3.79165 12.0545 3.79174C12.1458 3.37222 12.2982 3.05572 12.5526 2.80135C13.1872 2.16675 14.2085 2.16675 16.2513 2.16675ZM5.6888 8.66675C5.6888 8.21802 6.05257 7.85425 6.5013 7.85425H13.0013C13.45 7.85425 13.8138 8.21802 13.8138 8.66675C13.8138 9.11548 13.45 9.47925 13.0013 9.47925H6.5013C6.05257 9.47925 5.6888 9.11548 5.6888 8.66675ZM5.6888 11.9167C5.6888 11.468 6.05257 11.1042 6.5013 11.1042H13.0013C13.45 11.1042 13.8138 11.468 13.8138 11.9167C13.8138 12.3655 13.45 12.7292 13.0013 12.7292H6.5013C6.05257 12.7292 5.6888 12.3655 5.6888 11.9167ZM5.6888 15.1667C5.6888 14.718 6.05257 14.3542 6.5013 14.3542H13.0013C13.45 14.3542 13.8138 14.718 13.8138 15.1667C13.8138 15.6155 13.45 15.9792 13.0013 15.9792H6.5013C6.05257 15.9792 5.6888 15.6155 5.6888 15.1667ZM9.7513 19.7709C10.2 19.7709 10.5638 20.1347 10.5638 20.5834V23.0209H8.9388V20.5834C8.9388 20.1347 9.30257 19.7709 9.7513 19.7709Z" fill="white"/>
</svg>
