<svg width="29" height="29" viewBox="0 0 29 29" fill="none" xmlns="http://www.w3.org/2000/svg">
<path fill-rule="evenodd" clip-rule="evenodd" d="M18.1263 2.41675H20.543C22.8214 2.41675 23.9606 2.41675 24.6685 3.12457C25.3763 3.8324 25.3763 4.97163 25.3763 7.25008V25.6772H26.5846C27.0851 25.6772 27.4909 26.0829 27.4909 26.5834C27.4909 27.0839 27.0851 27.4897 26.5846 27.4897H2.41797C1.91746 27.4897 1.51172 27.0839 1.51172 26.5834C1.51172 26.0829 1.91746 25.6772 2.41797 25.6772H3.6263V10.8751C3.6263 8.59663 3.6263 7.4574 4.33413 6.74957C5.04195 6.04175 6.18118 6.04175 8.45963 6.04175H13.293C15.5714 6.04175 16.7107 6.04175 17.4185 6.74957C18.1263 7.4574 18.1263 8.59663 18.1263 10.8751V25.6772H19.9388V10.8751L19.9388 10.7669C19.9389 9.72097 19.939 8.76196 19.8342 7.98183C19.7187 7.12275 19.4469 6.21475 18.7001 5.46794C17.9533 4.72114 17.0453 4.44939 16.1862 4.33389C15.4171 4.23048 14.474 4.22913 13.4452 4.22923C13.5471 3.76132 13.7171 3.40829 14.0008 3.12457C14.7086 2.41675 15.8478 2.41675 18.1263 2.41675ZM6.34505 9.66675C6.34505 9.16624 6.75079 8.7605 7.2513 8.7605H14.5013C15.0018 8.7605 15.4076 9.16624 15.4076 9.66675C15.4076 10.1673 15.0018 10.573 14.5013 10.573H7.2513C6.75079 10.573 6.34505 10.1673 6.34505 9.66675ZM6.34505 13.2917C6.34505 12.7912 6.75079 12.3855 7.2513 12.3855H14.5013C15.0018 12.3855 15.4076 12.7912 15.4076 13.2917C15.4076 13.7923 15.0018 14.198 14.5013 14.198H7.2513C6.75079 14.198 6.34505 13.7923 6.34505 13.2917ZM6.34505 16.9167C6.34505 16.4162 6.75079 16.0105 7.2513 16.0105H14.5013C15.0018 16.0105 15.4076 16.4162 15.4076 16.9167C15.4076 17.4173 15.0018 17.823 14.5013 17.823H7.2513C6.75079 17.823 6.34505 17.4173 6.34505 16.9167ZM10.8763 22.0522C11.3768 22.0522 11.7826 22.4579 11.7826 22.9584V25.6772H9.97005V22.9584C9.97005 22.4579 10.3758 22.0522 10.8763 22.0522Z" fill="#1E1E1E"/>
</svg>
