<svg width="31" height="31" viewBox="0 0 31 31" fill="none" xmlns="http://www.w3.org/2000/svg">
<path fill-rule="evenodd" clip-rule="evenodd" d="M17.455 27.7546C18.1171 28.4167 19.1827 28.4167 21.3138 28.4167C23.4449 28.4167 24.5105 28.4167 25.1726 27.7546C25.8346 27.0925 25.8346 26.027 25.8346 23.8958C25.8346 21.7647 25.8346 20.6991 25.1726 20.0371C24.5105 19.375 23.4449 19.375 21.3138 19.375C19.1827 19.375 18.1171 19.375 17.455 20.0371C16.793 20.6991 16.793 21.7647 16.793 23.8958C16.793 26.027 16.793 27.0925 17.455 27.7546ZM20.5603 23.1424H19.3045C18.8884 23.1424 18.5511 23.4797 18.5511 23.8958C18.5511 24.312 18.8884 24.6493 19.3045 24.6493H20.5603H22.0673H23.3231C23.7392 24.6493 24.0765 24.312 24.0765 23.8958C24.0765 23.4797 23.7392 23.1424 23.3231 23.1424H22.0673H20.5603Z" fill="#1E1E1E"/>
<path d="M20.2523 17.4412C19.6413 17.4486 19.0717 17.4709 18.5754 17.5376C17.745 17.6492 16.8361 17.9161 16.085 18.6671C15.334 19.4181 15.0672 20.327 14.9555 21.1574C14.8552 21.9037 14.8553 22.8154 14.8555 23.7849V24.0069C14.8553 24.9764 14.8552 25.8881 14.9555 26.6344C15.0339 27.217 15.1886 27.8384 15.5335 28.4167C15.5228 28.4167 15.512 28.4167 15.5013 28.4167C5.16797 28.4167 5.16797 25.8144 5.16797 22.6042C5.16797 19.3941 9.79436 16.7917 15.5013 16.7917C17.2143 16.7917 18.8299 17.0262 20.2523 17.4412Z" fill="#1E1E1E"/>
<circle cx="15.4987" cy="7.74992" r="5.16667" fill="#1E1E1E"/>
</svg>
