<svg width="25" height="25" viewBox="0 0 25 25" fill="none" xmlns="http://www.w3.org/2000/svg">
<path fill-rule="evenodd" clip-rule="evenodd" d="M18.2305 2.8645C18.6619 2.8645 19.0117 3.21428 19.0117 3.64575V5.9895H21.3555C21.7869 5.9895 22.1367 6.33928 22.1367 6.77075C22.1367 7.20222 21.7869 7.552 21.3555 7.552H19.0117V9.89575C19.0117 10.3272 18.6619 10.677 18.2305 10.677C17.799 10.677 17.4492 10.3272 17.4492 9.89575V7.552H15.1055C14.674 7.552 14.3242 7.20222 14.3242 6.77075C14.3242 6.33928 14.674 5.9895 15.1055 5.9895H17.4492V3.64575C17.4492 3.21428 17.799 2.8645 18.2305 2.8645Z" fill="white"/>
<path d="M2.08203 6.77075C2.08203 4.56104 2.08203 3.45619 2.7685 2.76972C3.45497 2.08325 4.55982 2.08325 6.76953 2.08325C8.97924 2.08325 10.0841 2.08325 10.7706 2.76972C11.457 3.45619 11.457 4.56104 11.457 6.77075C11.457 8.98046 11.457 10.0853 10.7706 10.7718C10.0841 11.4583 8.97924 11.4583 6.76953 11.4583C4.55982 11.4583 3.45497 11.4583 2.7685 10.7718C2.08203 10.0853 2.08203 8.98046 2.08203 6.77075Z" fill="white"/>
<path d="M13.543 18.2292C13.543 16.0195 13.543 14.9147 14.2294 14.2282C14.9159 13.5417 16.0208 13.5417 18.2305 13.5417C20.4402 13.5417 21.545 13.5417 22.2315 14.2282C22.918 14.9147 22.918 16.0195 22.918 18.2292C22.918 20.439 22.918 21.5438 22.2315 22.2303C21.545 22.9167 20.4402 22.9167 18.2305 22.9167C16.0208 22.9167 14.9159 22.9167 14.2294 22.2303C13.543 21.5438 13.543 20.439 13.543 18.2292Z" fill="white"/>
<path d="M2.08203 18.2292C2.08203 16.0195 2.08203 14.9147 2.7685 14.2282C3.45497 13.5417 4.55982 13.5417 6.76953 13.5417C8.97924 13.5417 10.0841 13.5417 10.7706 14.2282C11.457 14.9147 11.457 16.0195 11.457 18.2292C11.457 20.439 11.457 21.5438 10.7706 22.2303C10.0841 22.9167 8.97924 22.9167 6.76953 22.9167C4.55982 22.9167 3.45497 22.9167 2.7685 22.2303C2.08203 21.5438 2.08203 20.439 2.08203 18.2292Z" fill="white"/>
</svg>
