<svg width="28" height="28" viewBox="0 0 28 28" fill="none" xmlns="http://www.w3.org/2000/svg">
<path fill-rule="evenodd" clip-rule="evenodd" d="M20.418 3.20825C20.9012 3.20825 21.293 3.6 21.293 4.08325V6.70825H23.918C24.4012 6.70825 24.793 7.1 24.793 7.58325C24.793 8.0665 24.4012 8.45825 23.918 8.45825H21.293V11.0833C21.293 11.5665 20.9012 11.9583 20.418 11.9583C19.9347 11.9583 19.543 11.5665 19.543 11.0833V8.45825H16.918C16.4347 8.45825 16.043 8.0665 16.043 7.58325C16.043 7.1 16.4347 6.70825 16.918 6.70825H19.543V4.08325C19.543 3.6 19.9347 3.20825 20.418 3.20825Z" fill="#1E1E1E"/>
<path d="M2.33203 7.58325C2.33203 5.10838 2.33203 3.87094 3.10088 3.1021C3.86972 2.33325 5.10716 2.33325 7.58203 2.33325C10.0569 2.33325 11.2943 2.33325 12.0632 3.1021C12.832 3.87094 12.832 5.10838 12.832 7.58325C12.832 10.0581 12.832 11.2956 12.0632 12.0644C11.2943 12.8333 10.0569 12.8333 7.58203 12.8333C5.10716 12.8333 3.86972 12.8333 3.10088 12.0644C2.33203 11.2956 2.33203 10.0581 2.33203 7.58325Z" fill="#1E1E1E"/>
<path d="M15.168 20.4167C15.168 17.9419 15.168 16.7044 15.9368 15.9356C16.7057 15.1667 17.9431 15.1667 20.418 15.1667C22.8928 15.1667 24.1303 15.1667 24.8991 15.9356C25.668 16.7044 25.668 17.9419 25.668 20.4167C25.668 22.8916 25.668 24.1291 24.8991 24.8979C24.1303 25.6667 22.8928 25.6667 20.418 25.6667C17.9431 25.6667 16.7057 25.6667 15.9368 24.8979C15.168 24.1291 15.168 22.8916 15.168 20.4167Z" fill="#1E1E1E"/>
<path d="M2.33203 20.4167C2.33203 17.9419 2.33203 16.7044 3.10088 15.9356C3.86972 15.1667 5.10716 15.1667 7.58203 15.1667C10.0569 15.1667 11.2943 15.1667 12.0632 15.9356C12.832 16.7044 12.832 17.9419 12.832 20.4167C12.832 22.8916 12.832 24.1291 12.0632 24.8979C11.2943 25.6667 10.0569 25.6667 7.58203 25.6667C5.10716 25.6667 3.86972 25.6667 3.10088 24.8979C2.33203 24.1291 2.33203 22.8916 2.33203 20.4167Z" fill="#1E1E1E"/>
</svg>
