<svg width="39" height="39" viewBox="0 0 39 39" fill="none" xmlns="http://www.w3.org/2000/svg">
<path d="M30.875 4.875H8.125C5.8269 4.875 4.67785 4.875 3.96393 5.54482C3.25 6.21464 3.25 7.2927 3.25 9.44882V10.5698C3.25 12.2563 3.25 13.0995 3.67185 13.7986C4.0937 14.4976 4.86439 14.9314 6.40578 15.7991L11.1394 18.4639C12.1736 19.046 12.6907 19.3371 13.061 19.6586C13.832 20.3279 14.3066 21.1145 14.5217 22.0791C14.625 22.5424 14.625 23.0844 14.625 24.1685L14.625 28.5064C14.625 29.9844 14.625 30.7235 15.0344 31.2996C15.4438 31.8757 16.1708 32.1599 17.625 32.7284C20.6778 33.9218 22.2042 34.5185 23.2896 33.8396C24.375 33.1607 24.375 31.6093 24.375 28.5064V24.1685C24.375 23.0844 24.375 22.5424 24.4783 22.0791C24.6934 21.1145 25.168 20.3279 25.939 19.6586C26.3093 19.3371 26.8264 19.046 27.8606 18.4639L32.5942 15.7991C34.1356 14.9314 34.9063 14.4976 35.3282 13.7986C35.75 13.0995 35.75 12.2563 35.75 10.5698V9.44882C35.75 7.2927 35.75 6.21464 35.0361 5.54482C34.3221 4.875 33.1731 4.875 30.875 4.875Z" fill="#09A380"/>
</svg>
