<svg width="142" height="142" viewBox="0 0 142 142" fill="none" xmlns="http://www.w3.org/2000/svg">
<path d="M88.75 76.9167H53.25" stroke="#1E1E1E" stroke-width="3" stroke-linecap="round"/>
<path d="M71 59.1667L71 94.6667" stroke="#1E1E1E" stroke-width="3" stroke-linecap="round"/>
<path d="M57.8525 124.25H84.1488C102.615 124.25 111.848 124.25 118.48 119.899C121.352 118.015 123.817 115.595 125.736 112.776C130.167 106.264 130.167 97.1985 130.167 79.0682C130.167 60.9379 130.167 51.8727 125.736 45.3607C123.817 42.5416 121.352 40.1212 118.48 38.2375C114.219 35.4416 108.883 34.4423 100.714 34.0851C96.8159 34.0851 93.4596 31.1849 92.6951 27.4318C91.5483 21.8023 86.5138 17.75 80.6665 17.75H61.3348C55.4875 17.75 50.453 21.8023 49.3062 27.4318C48.5417 31.1849 45.1854 34.0851 41.2871 34.0851C33.1182 34.4423 27.7827 35.4416 23.5208 38.2375C20.6495 40.1212 18.1842 42.5416 16.2657 45.3607C11.834 51.8727 11.834 60.9379 11.834 79.0682C11.834 97.1985 11.834 106.264 16.2657 112.776C18.1842 115.595 20.6495 118.015 23.5208 119.899C30.1534 124.25 39.3864 124.25 57.8525 124.25Z" stroke="#1E1E1E" stroke-width="3"/>
<path d="M112.417 59.1667H106.5" stroke="#1E1E1E" stroke-width="3" stroke-linecap="round"/>
</svg>
