<svg width="785" height="624" viewBox="0 0 785 624" fill="none" xmlns="http://www.w3.org/2000/svg">
<g clip-path="url(#clip0_564_758)">
<path d="M332.854 599.506C335.727 599.685 337.315 596.12 335.141 594.043L334.925 593.184C334.954 593.115 334.982 593.047 335.011 592.978C337.917 586.058 347.764 586.106 350.644 593.036C353.201 599.186 356.457 605.347 357.258 611.85C357.618 614.721 357.456 617.645 356.818 620.462C362.809 607.392 365.962 593.119 365.962 578.765C365.962 575.159 365.764 571.553 365.36 567.955C365.028 565.013 364.57 562.088 363.977 559.191C360.77 543.527 353.827 528.609 343.812 516.148C338.997 513.52 334.982 509.411 332.557 504.486C331.686 502.71 331.003 500.799 330.68 498.852C331.228 498.924 332.746 490.59 332.332 490.079C333.096 488.921 334.463 488.346 335.297 487.217C339.444 481.601 345.158 482.582 348.141 490.213C354.514 493.425 354.575 498.753 350.665 503.876C348.178 507.136 347.836 511.546 345.653 515.036C345.878 515.323 346.111 515.601 346.336 515.888C350.454 521.163 354.015 526.833 357.018 532.79C356.169 526.17 357.422 518.194 359.558 513.053C361.989 507.196 366.546 502.262 370.559 497.199C375.379 491.116 385.263 493.771 386.112 501.481C386.12 501.556 386.128 501.63 386.136 501.705C385.54 502.041 384.956 502.398 384.386 502.774C381.132 504.923 382.257 509.961 386.112 510.555L386.199 510.568C385.984 512.712 385.615 514.838 385.076 516.929C390.224 536.812 379.11 544.054 363.241 544.38C362.89 544.559 362.549 544.739 362.198 544.909C363.806 549.43 365.091 554.068 366.043 558.769C366.896 562.923 367.489 567.121 367.821 571.337C368.235 576.657 368.199 582.004 367.75 587.315L367.777 587.126C368.917 581.277 372.097 575.814 376.714 572.028C383.592 566.385 393.309 564.308 400.729 559.772C404.301 557.589 408.877 560.41 408.254 564.546L408.224 564.744C407.119 565.192 406.041 565.713 404.999 566.296C404.403 566.632 403.819 566.988 403.249 567.365C399.995 569.514 401.12 574.551 404.975 575.146L405.062 575.159C405.125 575.168 405.179 575.177 405.242 575.186C403.346 579.68 400.706 583.852 397.4 587.449C394.181 604.807 380.356 606.454 365.567 601.399H365.558C363.941 608.432 361.579 615.304 358.543 621.853H333.482C333.392 621.575 333.312 621.288 333.231 621.01C335.548 621.153 337.883 621.019 340.165 620.597C338.306 618.318 336.446 616.022 334.587 613.743C334.542 613.698 334.506 613.653 334.47 613.609C333.527 612.442 332.575 611.285 331.632 610.119L331.631 610.117C331.572 606.537 332.003 602.969 332.854 599.506Z" fill="#F2F2F2"/>
<path d="M0 622.347C0 623.264 0.737108 624 1.65501 624H562.507C563.424 624 564.162 623.264 564.162 622.347C564.162 621.431 563.424 620.694 562.507 620.694H1.65501C0.737108 620.694 0 621.431 0 622.347Z" fill="#CCCCCC"/>
<path d="M757.57 623.632H470.321C455.196 623.632 442.891 611.341 442.891 596.235V27.3962C442.891 12.2902 455.196 0 470.321 0H757.57C772.695 0 785.001 12.2902 785.001 27.3962V596.235C785.001 611.341 772.695 623.632 757.57 623.632ZM470.321 2.77787C456.708 2.77787 445.672 13.7996 445.672 27.3955V596.235C445.672 609.832 456.708 620.854 470.321 620.854H757.57C771.183 620.854 782.219 609.832 782.219 596.235V209.319C782.219 95.2495 689.631 2.77787 575.417 2.77787H470.321Z" fill="#E6E6E6"/>
<path d="M524.478 280.729C542.912 280.729 557.855 265.805 557.855 247.394C557.855 228.984 542.912 214.06 524.478 214.06C506.045 214.06 491.102 228.984 491.102 247.394C491.102 265.805 506.045 280.729 524.478 280.729Z" fill="#E6E6E6"/>
<path d="M703.416 280.729C721.849 280.729 736.792 265.805 736.792 247.394C736.792 228.984 721.849 214.06 703.416 214.06C684.982 214.06 670.039 228.984 670.039 247.394C670.039 265.805 684.982 280.729 703.416 280.729Z" fill="#E6E6E6"/>
<path d="M613.947 280.729C632.38 280.729 647.323 265.805 647.323 247.394C647.323 228.984 632.38 214.06 613.947 214.06C595.514 214.06 580.57 228.984 580.57 247.394C580.57 265.805 595.514 280.729 613.947 280.729Z" fill="#E6E6E6"/>
<path d="M524.478 376.565C542.912 376.565 557.855 361.641 557.855 343.231C557.855 324.821 542.912 309.896 524.478 309.896C506.045 309.896 491.102 324.821 491.102 343.231C491.102 361.641 506.045 376.565 524.478 376.565Z" fill="#E6E6E6"/>
<path d="M703.412 376.565C721.845 376.565 736.788 361.641 736.788 343.231C736.788 324.821 721.845 309.896 703.412 309.896C684.978 309.896 670.035 324.821 670.035 343.231C670.035 361.641 684.978 376.565 703.412 376.565Z" fill="#E6E6E6"/>
<path d="M613.943 376.565C632.376 376.565 647.32 361.641 647.32 343.231C647.32 324.821 632.376 309.896 613.943 309.896C595.51 309.896 580.566 324.821 580.566 343.231C580.566 361.641 595.51 376.565 613.943 376.565Z" fill="#E6E6E6"/>
<path d="M524.478 472.402C542.912 472.402 557.855 457.477 557.855 439.067C557.855 420.657 542.912 405.733 524.478 405.733C506.045 405.733 491.102 420.657 491.102 439.067C491.102 457.477 506.045 472.402 524.478 472.402Z" fill="#E6E6E6"/>
<path d="M702.728 568.074C721.162 568.074 736.105 553.15 736.105 534.74C736.105 516.33 721.162 501.405 702.728 501.405C684.295 501.405 669.352 516.33 669.352 534.74C669.352 553.15 684.295 568.074 702.728 568.074Z" fill="#E6E6E6"/>
<path d="M569.918 568.074C613.313 568.074 648.492 553.15 648.492 534.74C648.492 516.33 613.313 501.405 569.918 501.405C526.523 501.405 491.344 516.33 491.344 534.74C491.344 553.15 526.523 568.074 569.918 568.074Z" fill="#E6E6E6"/>
<path d="M703.412 472.402C721.845 472.402 736.788 457.477 736.788 439.067C736.788 420.657 721.845 405.733 703.412 405.733C684.978 405.733 670.035 420.657 670.035 439.067C670.035 457.477 684.978 472.402 703.412 472.402Z" fill="#E6E6E6"/>
<path d="M613.943 472.402C632.376 472.402 647.32 457.477 647.32 439.067C647.32 420.657 632.376 405.733 613.943 405.733C595.51 405.733 580.566 420.657 580.566 439.067C580.566 457.477 595.51 472.402 613.943 472.402Z" fill="#09A380"/>
<path d="M620.505 38.8901H301.294C291.829 38.8901 284.133 46.5769 284.133 56.03V173.144C284.133 182.597 291.829 190.284 301.294 190.284H620.505C629.97 190.284 637.666 182.597 637.666 173.144V56.03C637.666 46.5769 629.97 38.8901 620.505 38.8901Z" fill="white"/>
<path d="M620.505 38.8901H301.294C291.829 38.8901 284.133 46.5769 284.133 56.03V173.144C284.133 182.597 291.829 190.284 301.294 190.284H620.505C629.97 190.284 637.666 182.597 637.666 173.144V56.03C637.666 46.5769 629.97 38.8901 620.505 38.8901ZM635.862 173.144C635.862 181.606 628.977 188.482 620.505 188.482H301.294C292.822 188.482 285.937 181.606 285.937 173.144V56.03C285.937 47.5683 292.822 40.6924 301.294 40.6924H620.505C628.977 40.6924 635.862 47.5683 635.862 56.03V173.144Z" fill="#3F3D56"/>
<path d="M602.748 109.726H319.047C316.359 109.726 314.18 111.902 314.18 114.587C314.18 117.272 316.359 119.448 319.047 119.448H602.748C605.436 119.448 607.615 117.272 607.615 114.587C607.615 111.902 605.436 109.726 602.748 109.726Z" fill="#09A380"/>
<path d="M94.5034 250.593L91.6602 267.503L116.874 328.76L130.402 321.814L117.235 264.49L115.343 242.613L94.5034 250.593Z" fill="#A0616A"/>
<path d="M122.335 155.461C122.335 155.461 109.134 149.075 98.8901 170.655C88.6463 192.235 89.9148 239.566 89.9148 239.566C89.9148 239.566 86.1848 243.113 88.5526 245.597C90.9204 248.08 93.1279 252.021 90.7125 256.565C89.4394 258.959 86.4931 263.644 91.3179 264.975C96.1427 266.305 118.712 260.019 118.712 260.019C118.712 260.019 127.151 256.243 122.356 253.7C117.561 251.157 124.314 235.775 124.314 235.775L129.894 191.341L122.335 155.461Z" fill="#09A380"/>
<path d="M132.702 352.164C138.001 350.539 140.075 341.997 137.334 333.084C134.594 324.171 128.077 318.263 122.778 319.888C117.479 321.513 115.405 330.055 118.146 338.968C120.886 347.881 127.403 353.79 132.702 352.164Z" fill="#A0616A"/>
<path d="M257.667 614.701L270.303 611.313L263.236 561.022L244.586 566.022L257.667 614.701Z" fill="#A0616A"/>
<path d="M300.884 602.812C301.456 603.368 302.237 605.449 302.444 606.218C303.079 608.584 301.674 611.016 299.306 611.651L260.172 622.139C258.556 622.572 256.895 621.614 256.461 620L256.024 618.373C256.024 618.373 252.774 614.002 255.14 606.905C255.14 606.905 261.362 610.298 266.778 600.921L267.9 596.387L286.801 603.694L295.848 602.424C297.828 602.146 299.453 601.418 300.884 602.812Z" fill="#2F2E41"/>
<path d="M133.8 614.41L146.883 614.409L153.107 564.007L133.797 564.009L133.8 614.41Z" fill="#A0616A"/>
<path d="M178.626 614.114C179.033 614.799 179.248 617.011 179.248 617.807C179.248 620.257 177.26 622.242 174.808 622.242H134.289C132.616 622.242 131.26 620.888 131.26 619.217V617.532C131.26 617.532 129.256 612.469 133.382 606.227C133.382 606.227 138.511 611.114 146.175 603.46L148.435 599.371L164.795 611.32L173.863 612.435C175.846 612.679 177.605 612.397 178.626 614.114Z" fill="#2F2E41"/>
<path d="M220.876 314.184L255.28 462.289L271.888 581.958L245.789 585.512L173.422 381.72L156.814 585.512L127.155 587.882C127.155 587.882 103.428 346.175 114.105 316.554L220.876 314.184Z" fill="#2F2E41"/>
<path d="M261.824 139.053L273.694 126.665L287.326 61.8479L272.228 59.9961L250.848 114.796L240.098 133.951L261.824 139.053Z" fill="#A0616A"/>
<path d="M185.254 202.097C185.254 202.097 196.363 222.555 216.983 210.461C237.602 198.366 259.41 150.748 259.41 150.748C259.41 150.748 263.765 138.643 268.32 136.242C270.72 134.977 276.898 133.612 273.657 129.802C270.416 125.993 247.109 117.664 247.109 117.664C247.109 117.664 238.004 116.048 240.538 120.843C243.072 125.639 234.75 122.668 235.59 127.743C236.43 132.818 228.828 134.567 228.828 134.567L185.254 202.097Z" fill="#09A380"/>
<path d="M292.022 52.6917C294.773 43.782 292.709 35.2367 287.413 33.6054C282.116 31.974 275.592 37.8743 272.841 46.784C270.09 55.6937 272.153 64.239 277.45 65.8704C282.747 67.5018 289.271 61.6015 292.022 52.6917Z" fill="#A0616A"/>
<path d="M186.732 131.218H154.25L152.936 141.446C152.936 141.446 111.971 152.697 112.995 158.834C114.02 164.971 120.164 267.253 120.164 267.253L115.044 318.394C115.044 318.394 207.214 357.262 221.552 311.235L214.383 258.048C214.383 258.048 231.793 167.016 227.697 162.925C223.6 158.834 189.804 142.469 189.804 142.469L186.732 131.218Z" fill="#09A380"/>
<path d="M167.861 131.345C183.963 131.345 197.016 118.308 197.016 102.227C197.016 86.146 183.963 73.1096 167.861 73.1096C151.76 73.1096 138.707 86.146 138.707 102.227C138.707 118.308 151.76 131.345 167.861 131.345Z" fill="#A0616A"/>
<path d="M189.456 90.25C193.181 89.9354 196.906 89.6209 200.631 89.3065C199.351 88.7199 198.017 88.0921 197.164 86.9725C196.311 85.8529 196.135 84.084 197.165 83.1247C198.369 82.0039 200.364 82.5977 201.68 83.5851C200.955 79.806 198.697 76.3433 195.528 74.1542C191.658 71.4801 182.083 74.6687 177.417 74.0548C172.033 73.3464 171.361 68.7622 165.977 68.0538C163.948 67.787 161.665 67.5855 160.069 68.8659C158.299 70.2858 158.101 72.9704 156.539 74.6161C154.31 76.9658 150.489 76.2726 147.316 76.9337C142.822 77.8703 139.435 81.8056 137.87 86.1159C136.306 90.4262 136.248 95.1142 136.208 99.699C136.163 104.837 136.147 110.785 139.868 114.334C142.135 116.496 148.31 123.914 148.977 126.972C149.451 129.145 168.772 131.791 172.96 131.67L187.232 126.972C188.635 120.804 186.315 108.6 182.98 103.222C184.078 104.671 189.157 109.033 189.933 107.389C190.709 105.746 190.357 100.595 191.324 99.0556C192.544 97.1127 187.168 90.4431 189.456 90.25Z" fill="#2F2E41"/>
</g>
<defs>
<clipPath id="clip0_564_758">
<rect width="785" height="624" fill="white"/>
</clipPath>
</defs>
</svg>
