<svg width="14" height="14" viewBox="0 0 14 14" fill="none" xmlns="http://www.w3.org/2000/svg">
<path d="M2.91659 8.87614C2.5389 7.91137 2.33325 6.88419 2.33325 5.917C2.33325 3.29351 4.42259 1.16675 6.99992 1.16675C9.57725 1.16675 11.6666 3.29351 11.6666 5.917C11.6666 8.51994 10.1771 11.5573 7.8533 12.6435C7.31157 12.8967 6.68827 12.8967 6.14654 12.6435C5.40435 12.2966 4.74727 11.7507 4.19664 11.0834" stroke="white" stroke-linecap="round"/>
<path d="M6.44167 6.7208L6.13914 7.1189L6.13914 7.1189L6.44167 6.7208ZM7 4.50094L6.64793 4.85597C6.84284 5.04927 7.15716 5.04927 7.35207 4.85597L7 4.50094ZM7.86086 7.1189C8.08072 6.95182 8.12351 6.63814 7.95643 6.41828C7.78935 6.19842 7.47567 6.15563 7.25581 6.32271L7.86086 7.1189ZM7 6.99992L7 6.49992H7L7 6.99992ZM8.0626 5.54223C7.90187 5.76678 7.95361 6.07911 8.17816 6.23983C8.40271 6.40056 8.71504 6.34882 8.87576 6.12427L8.0626 5.54223ZM6.7442 6.32271C6.50227 6.13886 6.23734 5.91044 6.03756 5.67119C5.82617 5.41803 5.75 5.22676 5.75 5.10837H4.75C4.75 5.58473 5.01358 6.00507 5.26998 6.31213C5.53799 6.63311 5.8689 6.91353 6.13914 7.1189L6.7442 6.32271ZM5.75 5.10837C5.75 4.76574 5.9002 4.63905 6.00034 4.6027C6.11029 4.56278 6.35177 4.56228 6.64793 4.85597L7.35207 4.14592C6.86076 3.65869 6.22724 3.45644 5.65906 3.66273C5.08106 3.87259 4.75 4.44007 4.75 5.10837H5.75ZM9.25 5.10836C9.25 4.44007 8.91894 3.87259 8.34094 3.66273C7.77276 3.45644 7.13924 3.65869 6.64793 4.14592L7.35207 4.85597C7.64823 4.56228 7.88971 4.56278 7.99966 4.60269C8.0998 4.63905 8.25 4.76574 8.25 5.10836H9.25ZM6.13914 7.1189C6.34777 7.27745 6.60898 7.49992 7 7.49992L7 6.49992C6.99457 6.49992 6.99597 6.49949 6.99953 6.50047C7.00206 6.50117 6.99716 6.50033 6.98085 6.49142C6.96296 6.48164 6.93685 6.46523 6.89576 6.43591C6.85423 6.40627 6.80711 6.37052 6.7442 6.32271L6.13914 7.1189ZM7.25581 6.32271C7.19289 6.37053 7.14578 6.40627 7.10424 6.43591C7.06316 6.46523 7.03705 6.48164 7.01915 6.49142C7.00284 6.50033 6.99794 6.50117 7.00048 6.50047C7.00404 6.49949 7.00544 6.49992 7 6.49992L7 7.49992C7.39102 7.49992 7.65223 7.27745 7.86086 7.1189L7.25581 6.32271ZM8.87576 6.12427C9.07116 5.85127 9.25 5.50062 9.25 5.10836H8.25C8.25 5.20048 8.20351 5.34537 8.0626 5.54223L8.87576 6.12427Z" fill="white"/>
</svg>
