<svg width="36" height="36" viewBox="0 0 36 36" fill="none" xmlns="http://www.w3.org/2000/svg">
<path d="M13.5 18C13.5 18.8284 12.8284 19.5 12 19.5C11.1716 19.5 10.5 18.8284 10.5 18C10.5 17.1716 11.1716 16.5 12 16.5C12.8284 16.5 13.5 17.1716 13.5 18Z" fill="#09A380"/>
<path d="M19.5 18C19.5 18.8284 18.8284 19.5 18 19.5C17.1716 19.5 16.5 18.8284 16.5 18C16.5 17.1716 17.1716 16.5 18 16.5C18.8284 16.5 19.5 17.1716 19.5 18Z" fill="#09A380"/>
<path d="M25.5 18C25.5 18.8284 24.8284 19.5 24 19.5C23.1716 19.5 22.5 18.8284 22.5 18C22.5 17.1716 23.1716 16.5 24 16.5C24.8284 16.5 25.5 17.1716 25.5 18Z" fill="#09A380"/>
<path d="M33 18C33 25.0711 33 28.6066 30.8033 30.8033C28.6066 33 25.0711 33 18 33C10.9289 33 7.3934 33 5.1967 30.8033C3 28.6066 3 25.0711 3 18C3 10.9289 3 7.3934 5.1967 5.1967C7.3934 3 10.9289 3 18 3C25.0711 3 28.6066 3 30.8033 5.1967C32.2639 6.65731 32.7533 8.70983 32.9173 12" stroke="#09A380" stroke-width="1.5" stroke-linecap="round"/>
</svg>
